<svg xmlns="http://www.w3.org/2000/svg" viewBox="0 0 512 512">
  <defs>
    <linearGradient id="bg" x1="0%" y1="0%" x2="100%" y2="100%">
      <stop offset="0%" stop-color="#2563eb"/>
      <stop offset="100%" stop-color="#1d4ed8"/>
    </linearGradient>
  </defs>
  <!-- Rounded square background -->
  <rect width="512" height="512" rx="96" fill="url(#bg)"/>
  <!-- Chat bubble shape -->
  <path d="M128 120 h256 a48 48 0 0 1 48 48 v176 a48 48 0 0 1 -48 48 h-160 l-64 56 v-56 h-32 a48 48 0 0 1 -48 -48 v-176 a48 48 0 0 1 48 -48z" fill="white" opacity="0.15"/>
  <!-- Bold R letterform -->
  <path d="M176 148 h100 a72 72 0 0 1 72 72 v0 a72 72 0 0 1 -72 72 h-28 l80 100 h-68 l-76 -100 h-8 v100 h-52 v-244 h52z M228 172 v72 h48 a36 36 0 0 0 0 -72z" fill="white"/>
  <!-- Small dot accents suggesting AI/connectivity -->
  <circle cx="370" cy="160" r="14" fill="white" opacity="0.6"/>
  <circle cx="406" cy="196" r="10" fill="white" opacity="0.4"/>
</svg>
